<?xml version="1.0" encoding="UTF-8" standalone="no"?>
<!-- Created with Inkscape (http://www.inkscape.org/) -->

<svg
   width="655"
   height="242.59175"
   id="svg5433"
   sodipodi:version="0.32"
   inkscape:version="1.3.2 (091e20ef0f, 2023-11-25, custom)"
   version="1.0"
   sodipodi:docname="opus_head_structure.svg"
   xmlns:inkscape="http://www.inkscape.org/namespaces/inkscape"
   xmlns:sodipodi="http://sodipodi.sourceforge.net/DTD/sodipodi-0.dtd"
   xmlns="http://www.w3.org/2000/svg"
   xmlns:svg="http://www.w3.org/2000/svg"
   xmlns:rdf="http://www.w3.org/1999/02/22-rdf-syntax-ns#"
   xmlns:cc="http://creativecommons.org/ns#"
   xmlns:dc="http://purl.org/dc/elements/1.1/">
  <defs
     id="defs5435" />
  <sodipodi:namedview
     id="base"
     pagecolor="#ffffff"
     bordercolor="#666666"
     borderopacity="1.0"
     gridtolerance="10000"
     guidetolerance="10"
     objecttolerance="10"
     inkscape:pageopacity="0.0"
     inkscape:pageshadow="2"
     inkscape:zoom="2"
     inkscape:cx="326.25"
     inkscape:cy="121.75"
     inkscape:document-units="px"
     inkscape:current-layer="layer1"
     inkscape:grid-points="true"
     inkscape:grid-bbox="false"
     gridspacingx="0.5cm"
     gridspacingy="0.5cm"
     grid_units="cm"
     showgrid="true"
     height="315px"
     width="655px"
     inkscape:window-width="2560"
     inkscape:window-height="1360"
     inkscape:window-x="0"
     inkscape:window-y="0"
     gridempspacing="8"
     showborder="false"
     inkscape:showpageshadow="0"
     inkscape:pagecheckerboard="1"
     inkscape:deskcolor="#d1d1d1"
     inkscape:window-maximized="1" />
  <metadata
     id="metadata5438">
    <rdf:RDF>
      <cc:Work
         rdf:about="">
        <dc:format>image/svg+xml</dc:format>
        <dc:type
           rdf:resource="http://purl.org/dc/dcmitype/StillImage" />
      </cc:Work>
    </rdf:RDF>
  </metadata>
  <g
     inkscape:label="Layer 1"
     inkscape:groupmode="layer"
     id="layer1"
     transform="translate(-140.7368,-7.0923462)">
    <rect
       style="fill:#f9f9f9;stroke:none;stroke-width:0.873589;stroke-linecap:round;stroke-linejoin:round"
       id="rect1"
       width="655"
       height="239.6418"
       x="140.7368"
       y="7.0923462" />
    <rect
       style="fill:#6de263;fill-opacity:1;stroke:#000000;stroke-width:1;stroke-linecap:butt;stroke-linejoin:miter;stroke-dasharray:none;stroke-opacity:1"
       id="rect2"
       width="141.8569"
       height="35.25729"
       x="285.29846"
       y="106.78276" />
    <path
       style="fill:#fcaf3e;fill-opacity:1;stroke:#000000;stroke-width:1;stroke-linecap:butt;stroke-linejoin:miter;stroke-miterlimit:4;stroke-dashoffset:0;stroke-opacity:1"
       d="M 143.69538,106.43293 H 285.29846 V 141.866 H 143.69538 Z"
       id="rect1873" />
    <path
       style="fill:#ff0202;fill-opacity:1;stroke:#000000;stroke-width:1;stroke-linecap:butt;stroke-linejoin:miter;stroke-miterlimit:4;stroke-dasharray:none;stroke-dashoffset:0;stroke-opacity:1"
       d="m 143.42193,176.85211 h 283.13403 v 35.02716 H 143.42193 Z"
       id="rect1873-9" />
    <path
       style="fill:#fce94f;fill-opacity:1;stroke:#000000;stroke-width:1.00176;stroke-linecap:butt;stroke-linejoin:miter;stroke-miterlimit:4;stroke-dasharray:none;stroke-dashoffset:0;stroke-opacity:1"
       d="m 144.30125,142.1758 h 566.70823 v 34.46189 H 144.30125 Z"
       id="rect1875" />
    <path
       style="fill:#729fcf;fill-opacity:1;stroke:#000000;stroke-width:1;stroke-linecap:butt;stroke-linejoin:miter;stroke-miterlimit:4;stroke-dashoffset:0;stroke-opacity:1"
       d="m 427.14602,106.61628 v 35.4375 h 283.46875 v -35.4375 z"
       id="path1939" />
    <path
       style="fill:#ee42ff;fill-opacity:1;stroke:#000000;stroke-width:1;stroke-linecap:butt;stroke-linejoin:miter;stroke-miterlimit:4;stroke-dasharray:none;stroke-dashoffset:0;stroke-opacity:1"
       d="M 143.50809,36.319518 V 106.61628 H 710.80265 V 36.319518 Z"
       id="path1939-9" />
    <path
       style="fill:#babdb6;fill-opacity:1;stroke:#000000;stroke-width:1;stroke-linecap:butt;stroke-linejoin:miter;stroke-miterlimit:4;stroke-dashoffset:0;stroke-opacity:1"
       d="m 426.55596,176.64916 h 141.73228 v 35.43307 H 426.55596 Z"
       id="rect1897" />
    <path
       style="fill:#ffffff;fill-opacity:1;stroke:#000000;stroke-width:1;stroke-linecap:butt;stroke-linejoin:miter;stroke-miterlimit:4;stroke-dashoffset:0;stroke-opacity:1"
       d="m 568.28824,212.08223 v -35.43307 l 142.72124,-0.0115 V 247.5038 H 144.08034 v -35.43307 z"
       id="path1899"
       sodipodi:nodetypes="ccccccc" />
    <path
       style="fill:none;fill-opacity:1;stroke:#000000;stroke-width:2;stroke-linecap:butt;stroke-linejoin:miter;stroke-miterlimit:4;stroke-dasharray:none;stroke-dashoffset:0;stroke-opacity:1"
       d="m 143.58457,36.395998 h 567.3487 V 248.6841 h -567.3487 z"
       id="rect1869" />
    <path
       style="font-style:normal;font-weight:normal;font-size:24px;font-family:'DejaVu Serif';text-align:center;text-anchor:middle;fill:#000000;fill-opacity:1;stroke:none;stroke-width:1px;stroke-linecap:butt;stroke-linejoin:miter;stroke-opacity:1"
       d="m 730.14526,62.178696 c 1.1953,10e-7 2.08983,-0.656249 2.68359,-1.96875 0.59374,-1.312496 0.89061,-3.292963 0.89062,-5.941406 -10e-6,-2.656239 -0.29688,-4.640612 -0.89062,-5.953125 -0.59376,-1.312484 -1.48829,-1.968734 -2.68359,-1.96875 -1.19532,1.6e-5 -2.08985,0.656266 -2.6836,1.96875 -0.59375,1.312513 -0.89063,3.296886 -0.89062,5.953125 -1e-5,2.648443 0.29687,4.62891 0.89062,5.941406 0.59375,1.312501 1.48828,1.968751 2.6836,1.96875 m 0,1.160156 c -1.89845,0 -3.38282,-0.796874 -4.45313,-2.390625 -1.0625,-1.593746 -1.59375,-3.820306 -1.59375,-6.679687 0,-2.867176 0.53125,-5.097643 1.59375,-6.691407 1.07031,-1.593733 2.55468,-2.390607 4.45313,-2.390625 1.90624,1.8e-5 3.39061,0.796892 4.45312,2.390625 1.06249,1.593764 1.59374,3.824231 1.59375,6.691407 -10e-6,2.859381 -0.53126,5.085941 -1.59375,6.679687 -1.06251,1.593751 -2.54688,2.390625 -4.45312,2.390625 m 8.70703,-7.488281 h 9.89062 v 1.558594 h -9.89062 v -1.558594 m 13.27734,-9.609375 c 0.91406,-0.343733 1.78906,-0.605451 2.625,-0.785156 0.84375,-0.17967 1.63281,-0.269514 2.36719,-0.269532 1.71093,1.8e-5 3.04686,0.371112 4.00781,1.113282 0.96093,0.734391 1.44139,1.757827 1.44141,3.070312 -2e-5,1.0547 -0.33205,1.937512 -0.9961,2.648438 -0.66407,0.703135 -1.60548,1.179697 -2.82422,1.429687 1.43749,0.203134 2.55077,0.726571 3.33985,1.570313 0.79686,0.835944 1.1953,1.921881 1.19531,3.257812 -10e-6,1.632816 -0.55079,2.886721 -1.65234,3.761719 -1.09376,0.867187 -2.67189,1.300781 -4.73438,1.300781 -0.91407,0 -1.8086,-0.09766 -2.68359,-0.292969 -0.86719,-0.195312 -1.73047,-0.492187 -2.58985,-0.890625 v -3.398437 h 1.3125 c 0.0781,1.125003 0.45703,1.976565 1.13672,2.554687 0.67969,0.578127 1.63672,0.867189 2.8711,0.867188 1.1953,10e-7 2.13671,-0.343749 2.82422,-1.03125 0.6953,-0.69531 1.04295,-1.644528 1.04296,-2.847656 -10e-6,-1.374994 -0.35547,-2.414056 -1.0664,-3.117188 -0.71095,-0.710929 -1.75392,-1.066397 -3.12891,-1.066406 h -1.11328 v -1.195313 h 0.58594 c 1.36718,10e-6 2.39061,-0.281239 3.07031,-0.84375 0.68749,-0.570301 1.03124,-1.425769 1.03125,-2.566406 -10e-6,-1.023423 -0.28126,-1.804672 -0.84375,-2.34375 -0.56251,-0.546858 -1.3711,-0.820296 -2.42578,-0.820312 -1.05469,1.6e-5 -1.87501,0.250016 -2.46094,0.75 -0.57813,0.500015 -0.91797,1.242202 -1.01953,2.226562 h -1.3125 v -3.082031"
       id="text1969" />
    <path
       style="font-style:normal;font-weight:normal;font-size:24px;font-family:'DejaVu Serif';text-align:center;text-anchor:middle;fill:#000000;fill-opacity:1;stroke:none;stroke-width:1px;stroke-linecap:butt;stroke-linejoin:miter;stroke-opacity:1"
       d="m 731.73901,92.497891 v -9.304688 l -5.97657,9.304688 h 5.97657 m 5.15625,5.929687 h -7.96875 v -1.242187 h 2.8125 v -3.433594 h -7.64063 v -1.277344 l 7.66406,-11.859375 h 2.32032 v 11.882813 h 3.33984 v 1.253906 h -3.33984 v 3.433594 h 2.8125 v 1.242187 m 2.80078,-7.148437 h 9.89062 v 1.558593 h -9.89062 v -1.558593 m 24.48047,-9.152344 -6.84375,16.300781 h -1.7461 l 6.52735,-15.574219 h -8.08594 v 2.15625 h -1.3711 v -4.078125 h 11.51954 v 1.195313"
       id="text1973" />
    <path
       style="font-style:normal;font-weight:normal;font-size:24px;font-family:'DejaVu Serif';text-align:center;text-anchor:middle;fill:#000000;fill-opacity:1;stroke:none;stroke-width:1px;stroke-linecap:butt;stroke-linejoin:miter;stroke-opacity:1"
       d="m 733.6726,129.0749 c -10e-6,-1.24999 -0.31251,-2.21874 -0.9375,-2.90625 -0.6172,-0.6953 -1.48829,-1.04296 -2.61328,-1.04296 -1.12501,0 -2.00001,0.34766 -2.625,1.04296 -0.61719,0.68751 -0.92579,1.65626 -0.92578,2.90625 -1e-5,1.25782 0.30859,2.23438 0.92578,2.92969 0.62499,0.6875 1.49999,1.03125 2.625,1.03125 1.12499,0 1.99608,-0.34375 2.61328,-1.03125 0.62499,-0.69531 0.93749,-1.67187 0.9375,-2.92969 m -0.48047,-8.49609 c -10e-6,-1.06249 -0.26954,-1.89061 -0.80859,-2.48437 -0.53907,-0.59374 -1.29298,-0.89061 -2.26172,-0.89063 -0.96095,2e-5 -1.71485,0.29689 -2.26172,0.89063 -0.53907,0.59376 -0.8086,1.42188 -0.80859,2.48437 -10e-6,1.07032 0.26952,1.90236 0.80859,2.49609 0.54687,0.59376 1.30077,0.89064 2.26172,0.89063 0.96874,1e-5 1.72265,-0.29687 2.26172,-0.89063 0.53905,-0.59373 0.80858,-1.42577 0.80859,-2.49609 m -1.26562,3.96094 c 1.32811,0.17969 2.36327,0.67188 3.10546,1.47656 0.74218,0.79688 1.11327,1.81641 1.11329,3.05859 -2e-5,1.64063 -0.51955,2.90626 -1.5586,3.79688 -1.03907,0.88281 -2.52735,1.32422 -4.46484,1.32422 -1.92969,0 -3.41797,-0.44141 -4.46485,-1.32422 -1.03906,-0.89062 -1.55859,-2.15625 -1.55859,-3.79688 0,-1.24218 0.37109,-2.26171 1.11328,-3.05859 0.74219,-0.80468 1.78125,-1.29687 3.11719,-1.47656 -1.17969,-0.21093 -2.08594,-0.65624 -2.71875,-1.33594 -0.625,-0.68749 -0.9375,-1.56249 -0.9375,-2.625 0,-1.40624 0.48437,-2.5117 1.45312,-3.31641 0.96875,-0.81248 2.30078,-1.21873 3.9961,-1.21875 1.6953,2e-5 3.02733,0.40627 3.99609,1.21875 0.96874,0.80471 1.45311,1.91017 1.45313,3.31641 -2e-5,1.06251 -0.31642,1.93751 -0.94922,2.625 -0.62501,0.6797 -1.52345,1.12501 -2.69531,1.33594 m 6.90234,2.16797 h 9.89062 v 1.55859 h -9.89062 v -1.55859 m 14.35547,7.14843 v -1.24218 h 3.04687 v -14.55469 l -3.52734,2.28516 v -1.53516 l 4.26562,-2.76563 h 1.61719 v 16.57032 h 3.04688 v 1.24218 h -8.44922 m 15.23437,0 v -1.24218 h 3.04688 v -14.55469 l -3.52735,2.28516 v -1.53516 l 4.26563,-2.76563 h 1.61719 v 16.57032 h 3.04687 v 1.24218 h -8.44922"
       id="text1977" />
    <path
       style="font-style:normal;font-weight:normal;font-size:24px;font-family:'DejaVu Serif';text-align:center;text-anchor:middle;fill:#000000;fill-opacity:1;stroke:none;stroke-width:1px;stroke-linecap:butt;stroke-linejoin:miter;stroke-opacity:1"
       d="m 724.57885,169.28473 v -1.24219 h 3.04687 v -14.55469 l -3.52734,2.28516 v -1.53516 l 4.26563,-2.76562 h 1.61718 v 16.57031 h 3.04688 v 1.24219 h -8.44922 m 14.89453,-13.32422 h -1.3125 v -3.11719 c 0.83594,-0.44529 1.67578,-0.78514 2.51953,-1.01953 0.85156,-0.23436 1.68359,-0.35154 2.4961,-0.35156 1.8203,2e-5 3.2578,0.44142 4.3125,1.32422 1.05467,0.88282 1.58201,2.08204 1.58203,3.59765 -2e-5,1.71095 -1.19533,3.75782 -3.58594,6.14063 -0.18751,0.17969 -0.32813,0.31641 -0.42188,0.41015 l -4.41796,4.41797 h 7.30078 v -2.15625 h 1.37109 v 4.07813 h -11.28516 v -1.27735 l 5.3086,-5.29687 c 1.17187,-1.17187 2.0078,-2.24609 2.50781,-3.22266 0.49999,-0.98436 0.74999,-2.01561 0.75,-3.09375 -10e-6,-1.17967 -0.3086,-2.10155 -0.92578,-2.76562 -0.60938,-0.66405 -1.45313,-0.99608 -2.53125,-0.9961 -1.11719,2e-5 -1.98047,0.27736 -2.58984,0.83203 -0.60938,0.55471 -0.96876,1.38674 -1.07813,2.4961 m 13.21875,6.17578 h 9.89063 v 1.55859 h -9.89063 v -1.55859 m 14.35547,7.14844 v -1.24219 h 3.04687 v -14.55469 l -3.52734,2.28516 v -1.53516 l 4.26563,-2.76562 h 1.61718 v 16.57031 h 3.04688 v 1.24219 h -8.44922 m 23.89453,-17.4961 v 1.92188 h -8.01562 v 5.01562 c 0.40624,-0.28124 0.8789,-0.49217 1.41796,-0.63281 0.54687,-0.14061 1.15625,-0.21092 1.82813,-0.21094 1.89062,2e-5 3.3828,0.52345 4.47656,1.57032 1.09374,1.04688 1.64061,2.47657 1.64063,4.28906 -2e-5,1.85156 -0.5547,3.29688 -1.66407,4.33594 -1.10157,1.03125 -2.65235,1.54687 -4.65234,1.54687 -0.80469,0 -1.62891,-0.0977 -2.47266,-0.29297 -0.84375,-0.19531 -1.70703,-0.49218 -2.58984,-0.89062 v -3.39844 h 1.32422 c 0.0703,1.10938 0.42187,1.95703 1.05469,2.54297 0.64062,0.58594 1.53515,0.87891 2.68359,0.8789 1.23437,1e-5 2.18359,-0.40624 2.84766,-1.21875 0.66405,-0.81249 0.99608,-1.98046 0.99609,-3.5039 -10e-6,-1.51562 -0.33204,-2.67577 -0.99609,-3.48047 -0.65626,-0.81249 -1.60548,-1.21874 -2.84766,-1.21875 -0.70313,1e-5 -1.32422,0.12501 -1.86328,0.375 -0.53126,0.25001 -1.00391,0.63673 -1.41797,1.16016 h -1.00781 v -8.78907 h 9.25781"
       id="text1981" />
    <path
       style="font-style:normal;font-weight:normal;font-size:24px;font-family:'DejaVu Serif';text-align:center;text-anchor:middle;fill:#000000;fill-opacity:1;stroke:none;stroke-width:1px;stroke-linecap:butt;stroke-linejoin:miter;stroke-opacity:1"
       d="m 724.57885,204.7133 v -1.24219 h 3.04687 v -14.55468 l -3.52734,2.28515 v -1.53515 l 4.26563,-2.76563 h 1.61718 v 16.57031 h 3.04688 v 1.24219 h -8.44922 m 19.67578,-0.82031 c 1.10155,0 1.94921,-0.40234 2.54297,-1.20703 0.59374,-0.8125 0.89061,-1.97656 0.89062,-3.49219 -10e-6,-1.51562 -0.29688,-2.67577 -0.89062,-3.48047 -0.59376,-0.81249 -1.44142,-1.21874 -2.54297,-1.21875 -1.11719,1e-5 -1.96875,0.39064 -2.55469,1.17188 -0.58594,0.78125 -0.87891,1.91016 -0.8789,3.38671 -1e-5,1.5547 0.29687,2.75001 0.89062,3.58594 0.59375,0.83594 1.4414,1.25391 2.54297,1.25391 m -3.82031,-8.8125 c 0.53124,-0.58593 1.13281,-1.02343 1.80469,-1.3125 0.67186,-0.28905 1.42968,-0.43358 2.27343,-0.4336 1.74218,2e-5 3.11718,0.52345 4.125,1.57032 1.01562,1.04688 1.52343,2.47657 1.52344,4.28906 -10e-6,1.77344 -0.54689,3.19531 -1.64062,4.26562 -1.08595,1.0625 -2.53908,1.59375 -4.35938,1.59375 -1.97657,0 -3.4961,-0.73437 -4.55859,-2.20312 -1.0625,-1.47656 -1.59375,-3.58203 -1.59375,-6.31641 0,-3.06249 0.6289,-5.43358 1.88672,-7.11328 1.2578,-1.67967 3.03124,-2.51951 5.32031,-2.51953 0.61718,2e-5 1.26561,0.0586 1.94531,0.17578 0.67968,0.11721 1.37499,0.29299 2.08594,0.52735 v 2.88281 h -1.32422 c -0.0938,-0.78905 -0.39454,-1.39061 -0.90234,-1.80469 -0.50783,-0.41405 -1.19142,-0.62108 -2.05079,-0.62109 -1.51563,1e-5 -2.64453,0.57423 -3.38671,1.72265 -0.7422,1.14845 -1.12501,2.91408 -1.14844,5.29688 m 12.25781,2.48437 h 9.89063 v 1.5586 h -9.89063 v -1.5586 m 14.35547,7.14844 v -1.24219 h 3.04687 v -14.55468 l -3.52734,2.28515 v -1.53515 l 4.26563,-2.76563 h 1.61718 v 16.57031 h 3.04688 v 1.24219 h -8.44922 m 23.05078,-7.83984 c -0.52345,0.58594 -1.12501,1.02344 -1.80469,1.3125 -0.67969,0.28907 -1.44532,0.4336 -2.29687,0.43359 -1.73438,1e-5 -3.10547,-0.52343 -4.11328,-1.57031 -1,-1.04687 -1.5,-2.47655 -1.5,-4.28906 0,-1.77343 0.54296,-3.1914 1.6289,-4.25391 1.09375,-1.0703 2.55078,-1.60545 4.3711,-1.60547 1.97655,2e-5 3.49217,0.7383 4.54687,2.21484 1.06249,1.46877 1.59374,3.57033 1.59375,6.30469 -1e-5,3.06251 -0.62892,5.4336 -1.88672,7.11328 -1.25782,1.67969 -3.02735,2.51953 -5.30859,2.51953 -0.61719,0 -1.26563,-0.0586 -1.94531,-0.17578 -0.67969,-0.11718 -1.37501,-0.29297 -2.08594,-0.52734 v -2.90625 h 1.3125 c 0.10156,0.78906 0.40625,1.39453 0.91406,1.81641 0.50781,0.42187 1.1875,0.63281 2.03906,0.63281 1.51562,0 2.64453,-0.57031 3.38672,-1.71094 0.74218,-1.14843 1.12499,-2.91796 1.14844,-5.30859 m -3.80859,-8.8125 c -1.10938,1e-5 -1.96095,0.40626 -2.55469,1.21875 -0.58594,0.8047 -0.87891,1.96485 -0.87891,3.48047 0,1.51563 0.29297,2.67969 0.87891,3.49218 0.59374,0.81251 1.44531,1.21876 2.55469,1.21875 1.10936,1e-5 1.95702,-0.39061 2.54297,-1.17187 0.59374,-0.78905 0.89061,-1.92187 0.89062,-3.39844 -10e-6,-1.55467 -0.29688,-2.74998 -0.89062,-3.58594 -0.59376,-0.83592 -1.44142,-1.25389 -2.54297,-1.2539"
       id="text1985" />
    <path
       style="font-style:normal;font-weight:normal;font-size:24px;font-family:'DejaVu Serif';text-align:center;text-anchor:middle;fill:#000000;fill-opacity:1;stroke:none;stroke-width:1px;stroke-linecap:butt;stroke-linejoin:miter;stroke-opacity:1"
       d="m 725.53979,226.81766 h -1.3125 v -3.11719 c 0.83593,-0.4453 1.67578,-0.78514 2.51953,-1.01953 0.85156,-0.23436 1.68359,-0.35155 2.49609,-0.35157 1.82031,2e-5 3.2578,0.44143 4.3125,1.32422 1.05468,0.88283 1.58202,2.08205 1.58203,3.59766 -10e-6,1.71095 -1.19532,3.75782 -3.58593,6.14062 -0.18751,0.1797 -0.32814,0.31642 -0.42188,0.41016 l -4.41797,4.41797 h 7.30078 v -2.15625 h 1.3711 v 4.07812 h -11.28516 v -1.27734 l 5.30859,-5.29687 c 1.17187,-1.17187 2.00781,-2.24609 2.50782,-3.22266 0.49999,-0.98436 0.74999,-2.01561 0.75,-3.09375 -1e-5,-1.17967 -0.30861,-2.10155 -0.92578,-2.76563 -0.60939,-0.66404 -1.45314,-0.99607 -2.53125,-0.99609 -1.1172,2e-5 -1.98048,0.27736 -2.58985,0.83203 -0.60938,0.5547 -0.96875,1.38674 -1.07812,2.4961 m 19.79297,12.5039 c 1.1953,0 2.08983,-0.65625 2.68359,-1.96875 0.59374,-1.31249 0.89061,-3.29296 0.89062,-5.9414 -10e-6,-2.65624 -0.29688,-4.64062 -0.89062,-5.95313 -0.59376,-1.31248 -1.48829,-1.96873 -2.68359,-1.96875 -1.19532,2e-5 -2.08985,0.65627 -2.6836,1.96875 -0.59375,1.31251 -0.89063,3.29689 -0.89062,5.95313 -1e-5,2.64844 0.29687,4.62891 0.89062,5.9414 0.59375,1.3125 1.48828,1.96875 2.6836,1.96875 m 0,1.16016 c -1.89845,0 -3.38282,-0.79688 -4.45313,-2.39063 -1.0625,-1.59374 -1.59375,-3.8203 -1.59375,-6.67968 0,-2.86718 0.53125,-5.09765 1.59375,-6.69141 1.07031,-1.59373 2.55468,-2.39061 4.45313,-2.39063 1.90624,2e-5 3.39061,0.7969 4.45312,2.39063 1.06249,1.59376 1.59374,3.82423 1.59375,6.69141 -10e-6,2.85938 -0.53126,5.08594 -1.59375,6.67968 -1.06251,1.59375 -2.54688,2.39063 -4.45312,2.39063 m 8.70703,-7.48828 h 9.89062 v 1.55859 h -9.89062 v -1.55859"
       id="text1989"
       sodipodi:nodetypes="ccccssscscccccccccscssccssssssscccscsssscccccc" />
    <path
       style="font-style:normal;font-weight:bold;font-size:24px;font-family:'DejaVu Serif';text-align:center;text-anchor:middle;fill:#000000;fill-opacity:1;stroke:none;stroke-width:1px;stroke-linecap:butt;stroke-linejoin:miter;stroke-opacity:1"
       d="M 724.09838,29.924099 V 28.50613 h 2.23828 V 13.845974 h -2.23828 v -1.417969 h 10.37109 c 2.1328,1.8e-5 3.73436,0.359393 4.80469,1.078125 1.0703,0.718766 1.60545,1.800796 1.60547,3.246094 -2e-5,1.039075 -0.37111,1.863293 -1.11328,2.472656 -0.73439,0.609386 -1.82814,0.992198 -3.28125,1.148438 1.7578,0.164072 3.10545,0.632821 4.04297,1.40625 0.93748,0.773445 1.40623,1.800788 1.40625,3.082031 -2e-5,1.734379 -0.65627,3.011721 -1.96875,3.832031 -1.3047,0.820313 -3.35158,1.230469 -6.14063,1.230469 h -9.72656 m 6.75,-10.195312 h 1.53516 c 1.34374,10e-6 2.33983,-0.242177 2.98828,-0.726563 0.64842,-0.492176 0.97264,-1.242175 0.97265,-2.25 -10e-6,-1.015611 -0.31641,-1.753891 -0.94921,-2.214844 -0.62502,-0.460921 -1.62892,-0.69139 -3.01172,-0.691406 h -1.53516 v 5.882813 m 0,8.777343 h 1.67578 c 1.49218,2e-6 2.59765,-0.296873 3.31641,-0.890625 0.71873,-0.593747 1.07811,-1.511714 1.07812,-2.753906 -10e-6,-1.249993 -0.36329,-2.183586 -1.08984,-2.800781 -0.72657,-0.617179 -1.82814,-0.925773 -3.30469,-0.925781 h -1.67578 v 7.371093 m 19.86328,4.230469 c -0.375,0.914059 -0.82813,1.562496 -1.35937,1.945313 -0.53126,0.382807 -1.2461,0.574213 -2.14453,0.574218 -0.38282,-5e-6 -0.8086,-0.04297 -1.27735,-0.128906 -0.46875,-0.08594 -0.98047,-0.210942 -1.53515,-0.375 v -2.601562 l 1.32421,0.01172 c 0.0234,0.60156 0.16406,1.046872 0.42188,1.335938 0.26562,0.289059 0.66015,0.43359 1.18359,0.433594 0.50781,-4e-6 0.91797,-0.140629 1.23047,-0.421875 0.3125,-0.273441 0.625,-0.796878 0.9375,-1.570313 l 0.1875,-0.433594 -5.42578,-12.621093 h -1.34766 V 17.46707 h 7.1836 v 1.417969 h -1.48828 l 3.16406,7.371093 2.95312,-7.371093 h -1.65234 V 17.46707 h 4.67578 v 1.417969 h -1.51172 l -5.51953,13.851562 m 8.85938,-13.851562 h -1.80469 V 17.46707 h 1.80469 v -3.86719 h 4.14843 v 3.867188 h 3.45704 v 1.417969 h -3.45704 v 7.628906 c 0,1.08594 0.0859,1.76172 0.25782,2.027344 0.17187,0.265626 0.48436,0.398438 0.9375,0.398437 0.49999,1e-6 0.87108,-0.167967 1.11328,-0.503906 0.24218,-0.335936 0.37108,-0.855466 0.38672,-1.558594 h 1.74609 c -0.0703,1.250002 -0.41407,2.128907 -1.03125,2.636719 -0.60938,0.5 -1.66407,0.75 -3.16406,0.75 -1.71094,0 -2.8711,-0.265625 -3.48047,-0.796875 -0.60938,-0.539062 -0.91407,-1.523436 -0.91406,-2.953125 v -7.628906 m 18.30468,4.007812 c 0,-1.640616 -0.15235,-2.789052 -0.45703,-3.445312 -0.30469,-0.664052 -0.82422,-0.996083 -1.55859,-0.996094 -0.71094,1.1e-5 -1.22266,0.32423 -1.53516,0.972656 -0.30469,0.648448 -0.45703,1.734384 -0.45703,3.257813 v 0.210937 h 4.00781 m 4.5586,1.394531 h -8.56641 v 0.09375 c 0,1.609379 0.24218,2.773441 0.72656,3.492188 0.48437,0.710939 1.26562,1.066407 2.34375,1.066406 0.89843,1e-6 1.62499,-0.23828 2.17969,-0.714844 0.55468,-0.47656 0.91015,-1.167965 1.06641,-2.074218 h 1.94531 c -0.33595,1.414065 -1.00392,2.453126 -2.00391,3.117187 -1.00001,0.664063 -2.39844,0.996094 -4.19531,0.996094 -2.15625,0 -3.8125,-0.566406 -4.96875,-1.699219 -1.14844,-1.140622 -1.72266,-2.765621 -1.72265,-4.875 -10e-6,-2.062492 0.58984,-3.671865 1.76953,-4.828125 1.17968,-1.156238 2.8203,-1.734362 4.92187,-1.734375 2.06249,1.3e-5 3.64452,0.609387 4.7461,1.828125 1.10154,1.210947 1.68748,2.988289 1.75781,5.332031"
       id="text2053" />
    <path
       style="font-style:normal;font-weight:bold;font-size:24px;font-family:'DejaVu Serif';text-align:center;text-anchor:middle;fill:#000000;fill-opacity:1;stroke:none;stroke-width:1px;stroke-linecap:butt;stroke-linejoin:miter;stroke-opacity:1"
       d="M 145.90405,26.424099 V 25.00613 h 2.23828 V 10.345974 h -2.23828 V 8.9280054 h 10.37109 c 2.1328,1.75e-5 3.73436,0.3593922 4.80469,1.0781246 1.07029,0.718766 1.60545,1.800796 1.60546,3.246094 -1e-5,1.039075 -0.37111,1.863293 -1.11328,2.472656 -0.73439,0.609386 -1.82814,0.992198 -3.28125,1.148438 1.7578,0.164072 3.10546,0.632821 4.04297,1.40625 0.93748,0.773445 1.40623,1.800788 1.40625,3.082031 -2e-5,1.734379 -0.65627,3.011721 -1.96875,3.832031 -1.3047,0.820313 -3.35157,1.230469 -6.14062,1.230469 h -9.72656 m 6.75,-10.195312 h 1.53515 c 1.34374,10e-6 2.33983,-0.242177 2.98828,-0.726563 0.64843,-0.492176 0.97265,-1.242175 0.97266,-2.25 -1e-5,-1.015611 -0.31642,-1.753891 -0.94922,-2.214844 -0.62501,-0.460921 -1.62892,-0.69139 -3.01172,-0.691406 h -1.53515 v 5.882813 m 0,8.777343 h 1.67578 c 1.49217,2e-6 2.59764,-0.296873 3.3164,-0.890625 0.71874,-0.593747 1.07811,-1.511714 1.07813,-2.753906 -2e-5,-1.249993 -0.3633,-2.183586 -1.08985,-2.800781 -0.72657,-0.617179 -1.82813,-0.925773 -3.30468,-0.925781 h -1.67578 v 7.371093 m 14.57812,-14.566406 c 0,-0.6327957 0.21875,-1.1640452 0.65625,-1.5937498 0.4375,-0.437482 0.97265,-0.6562318 1.60547,-0.65625 0.61718,1.82e-5 1.14062,0.218768 1.57031,0.65625 0.43749,0.4297046 0.65624,0.9609541 0.65625,1.5937498 -1e-5,0.617203 -0.21876,1.144546 -0.65625,1.582031 -0.42969,0.429702 -0.95313,0.644545 -1.57031,0.644532 -0.63282,1.3e-5 -1.16797,-0.21483 -1.60547,-0.644532 -0.4375,-0.429672 -0.65625,-0.957015 -0.65625,-1.582031 m 4.53516,14.566406 h 1.78125 v 1.417969 h -7.69922 V 25.00613 h 1.76953 v -9.621093 h -1.76953 v -1.417969 h 5.91797 V 25.00613 m 4.73437,-9.621093 h -1.80469 v -1.417969 h 1.80469 V 10.09988 h 4.14844 v 3.867188 h 3.45703 v 1.417969 h -3.45703 v 7.628906 c -1e-5,1.08594 0.0859,1.76172 0.25781,2.027344 0.17187,0.265626 0.48437,0.398438 0.9375,0.398437 0.49999,1e-6 0.87109,-0.167967 1.11328,-0.503906 0.24218,-0.335936 0.37109,-0.855466 0.38672,-1.558594 h 1.7461 c -0.0703,1.250002 -0.41408,2.128907 -1.03126,2.636719 -0.60938,0.5 -1.66407,0.75 -3.16406,0.75 -1.71094,0 -2.8711,-0.265625 -3.48047,-0.796875 -0.60937,-0.539062 -0.91406,-1.523436 -0.91406,-2.953125 v -7.628906"
       id="text2057" />
    <path
       style="font-style:normal;font-weight:normal;font-size:24px;font-family:'DejaVu Serif';text-align:center;text-anchor:middle;fill:#000000;fill-opacity:1;stroke:none;stroke-width:1px;stroke-linecap:butt;stroke-linejoin:miter;stroke-opacity:1"
       d="m 200.95025,25.603787 c 1.1953,1e-6 2.08983,-0.656249 2.68359,-1.96875 0.59374,-1.312496 0.89062,-3.292963 0.89063,-5.941407 -1e-5,-2.656238 -0.29689,-4.640611 -0.89063,-5.953125 -0.59376,-1.312484 -1.48829,-1.9687329 -2.68359,-1.9687496 -1.19532,1.67e-5 -2.08985,0.6562656 -2.6836,1.9687496 -0.59375,1.312514 -0.89062,3.296887 -0.89062,5.953125 0,2.648444 0.29687,4.628911 0.89062,5.941407 0.59375,1.312501 1.48828,1.968751 2.6836,1.96875 m 0,1.160156 c -1.89844,0 -3.38282,-0.796875 -4.45313,-2.390625 -1.0625,-1.593746 -1.59375,-3.820307 -1.59375,-6.679688 0,-2.867175 0.53125,-5.097642 1.59375,-6.691406 1.07031,-1.5937328 2.55469,-2.390607 4.45313,-2.3906248 1.90624,1.78e-5 3.39061,0.796892 4.45312,2.3906248 1.06249,1.593764 1.59374,3.824231 1.59375,6.691406 -1e-5,2.859381 -0.53126,5.085942 -1.59375,6.679688 -1.06251,1.59375 -2.54688,2.390625 -4.45312,2.390625 m 8.70703,-7.488281 h 9.89062 v 1.558593 h -9.89062 v -1.558593 m 24.48047,-9.152344 -6.84375,16.300781 h -1.7461 l 6.52735,-15.574219 h -8.08594 v 2.15625 h -1.37109 V 8.9280054 h 11.51953 v 1.1953126"
       id="text2061" />
    <path
       style="font-style:normal;font-weight:normal;font-size:24px;font-family:'DejaVu Serif';text-align:center;text-anchor:middle;fill:#000000;fill-opacity:1;stroke:none;stroke-width:1px;stroke-linecap:butt;stroke-linejoin:miter;stroke-opacity:1"
       d="m 338.66045,21.642849 c -1e-5,-1.249994 -0.31251,-2.218743 -0.9375,-2.90625 -0.61719,-0.695304 -1.48829,-1.04296 -2.61328,-1.042969 -1.125,9e-6 -2,0.347665 -2.625,1.042969 -0.61719,0.687507 -0.92578,1.656256 -0.92578,2.90625 0,1.257816 0.30859,2.234378 0.92578,2.929688 0.625,0.687501 1.5,1.031251 2.625,1.03125 1.12499,1e-6 1.99609,-0.343749 2.61328,-1.03125 0.62499,-0.69531 0.93749,-1.671872 0.9375,-2.929688 m -0.48047,-8.496094 c -10e-6,-1.062485 -0.26954,-1.890609 -0.80859,-2.484375 -0.53907,-0.593733 -1.29298,-0.8906079 -2.26172,-0.8906246 -0.96094,1.67e-5 -1.71485,0.2968916 -2.26172,0.8906246 -0.53906,0.593766 -0.80859,1.42189 -0.80859,2.484375 0,1.070325 0.26953,1.902356 0.80859,2.496094 0.54687,0.59376 1.30078,0.890635 2.26172,0.890625 0.96874,1e-5 1.72265,-0.296865 2.26172,-0.890625 0.53905,-0.593738 0.80858,-1.425769 0.80859,-2.496094 m -1.26562,3.960938 c 1.32811,0.179697 2.36327,0.671884 3.10547,1.476562 0.74217,0.796882 1.11327,1.816413 1.11328,3.058594 -10e-6,1.640628 -0.51954,2.906252 -1.55859,3.796875 -1.03908,0.882813 -2.52736,1.324219 -4.46485,1.324219 -1.92969,0 -3.41797,-0.441406 -4.46484,-1.324219 -1.03907,-0.890623 -1.5586,-2.156247 -1.5586,-3.796875 0,-1.242181 0.3711,-2.261712 1.11329,-3.058594 0.74218,-0.804678 1.78124,-1.296865 3.11718,-1.476562 -1.17969,-0.210928 -2.08594,-0.65624 -2.71875,-1.335938 -0.625,-0.687488 -0.9375,-1.562487 -0.9375,-2.625 0,-1.406235 0.48438,-2.511702 1.45313,-3.3164058 0.96874,-0.8124826 2.30077,-1.2187322 3.99609,-1.21875 1.69531,1.78e-5 3.02734,0.4062674 3.9961,1.21875 0.96873,0.8047038 1.45311,1.9101708 1.45312,3.3164058 -1e-5,1.062513 -0.31642,1.937512 -0.94922,2.625 -0.62501,0.679698 -1.52345,1.12501 -2.69531,1.335938 m 6.90234,2.167969 h 9.89063 v 1.558593 h -9.89063 v -1.558593 m 14.35547,7.148437 v -1.242187 h 3.04688 V 10.627224 l -3.52735,2.285156 v -1.535156 l 4.26563,-2.7656248 h 1.61719 V 25.181912 h 3.04687 v 1.242187 h -8.44922 M 382.0667,8.9280054 V 10.84988 h -8.01562 v 5.015625 c 0.40624,-0.281239 0.8789,-0.492176 1.41797,-0.632812 0.54687,-0.140614 1.15624,-0.210926 1.82812,-0.210938 1.89062,1.2e-5 3.3828,0.523449 4.47656,1.570313 1.09374,1.046884 1.64062,2.47657 1.64063,4.289062 -10e-6,1.851567 -0.5547,3.296878 -1.66406,4.335938 -1.10158,1.03125 -2.65236,1.546875 -4.65235,1.546875 -0.80469,0 -1.62891,-0.09766 -2.47265,-0.292969 -0.84376,-0.195312 -1.70704,-0.492187 -2.58985,-0.890625 v -3.398437 h 1.32422 c 0.0703,1.109378 0.42187,1.957033 1.05469,2.542968 0.64062,0.585939 1.53515,0.878908 2.68359,0.878907 1.23437,1e-6 2.18359,-0.406249 2.84766,-1.21875 0.66405,-0.812497 0.99608,-1.980465 0.99609,-3.503907 -1e-5,-1.515617 -0.33204,-2.675773 -0.99609,-3.480468 -0.65626,-0.81249 -1.60548,-1.21874 -2.84766,-1.21875 -0.70313,10e-6 -1.32422,0.12501 -1.86328,0.375 -0.53125,0.250009 -1.00391,0.636728 -1.41797,1.160156 h -1.00781 V 8.9280054 h 9.25781"
       id="text2065" />
    <path
       style="font-style:normal;font-weight:normal;font-size:24px;font-family:'DejaVu Serif';text-align:center;text-anchor:middle;fill:#000000;fill-opacity:1;stroke:none;stroke-width:1px;stroke-linecap:butt;stroke-linejoin:miter;stroke-opacity:1"
       d="m 464.39477,26.424099 v -1.242187 h 3.04687 V 10.627224 l -3.52734,2.285156 v -1.535156 l 4.26562,-2.7656248 h 1.61719 V 25.181912 h 3.04688 v 1.242187 h -8.44922 m 19.67578,-0.820312 c 1.10155,1e-6 1.94921,-0.402343 2.54297,-1.207032 0.59374,-0.812497 0.89061,-1.976558 0.89062,-3.492187 -1e-5,-1.515618 -0.29688,-2.675773 -0.89062,-3.480469 -0.59376,-0.81249 -1.44142,-1.21874 -2.54297,-1.21875 -1.1172,1e-5 -1.96876,0.390635 -2.55469,1.171875 -0.58594,0.781258 -0.87891,1.910164 -0.8789,3.386719 -10e-6,1.554692 0.29687,2.750003 0.89062,3.585937 0.59374,0.835939 1.4414,1.253908 2.54297,1.253907 m -3.82031,-8.8125 c 0.53124,-0.585928 1.1328,-1.023427 1.80468,-1.3125 0.67187,-0.289052 1.42968,-0.433583 2.27344,-0.433594 1.74218,1.1e-5 3.11718,0.523448 4.125,1.570312 1.01561,1.046884 1.52343,2.47657 1.52344,4.289063 -1e-5,1.773441 -0.54689,3.195315 -1.64063,4.265625 -1.08594,1.0625 -2.53907,1.59375 -4.35937,1.59375 -1.97657,0 -3.4961,-0.734375 -4.55859,-2.203125 -1.06251,-1.476559 -1.59376,-3.582026 -1.59375,-6.316406 -10e-6,-3.062489 0.6289,-5.43358 1.88671,-7.113282 1.25781,-1.6796701 3.03125,-2.519513 5.32032,-2.5195308 0.61717,1.78e-5 1.26561,0.058611 1.94531,0.1757812 0.67967,0.1172051 1.37499,0.2929861 2.08594,0.5273438 v 2.8828128 h -1.32422 c -0.0938,-0.789048 -0.39454,-1.39061 -0.90235,-1.804688 -0.50782,-0.4140459 -1.19141,-0.6210769 -2.05078,-0.6210936 -1.51563,1.67e-5 -2.64453,0.5742346 -3.38672,1.7226566 -0.74219,1.148451 -1.125,2.914074 -1.14843,5.296875 m 12.25781,2.484375 h 9.89062 v 1.558593 h -9.89062 v -1.558593 m 14.01562,-6.175782 h -1.3125 V 9.9826929 c 0.83594,-0.4452956 1.67578,-0.785139 2.51954,-1.0195312 0.85155,-0.2343573 1.68358,-0.3515447 2.49609,-0.3515625 1.8203,1.78e-5 3.2578,0.4414236 4.3125,1.3242187 1.05467,0.8828281 1.58202,2.0820461 1.58203,3.5976561 -10e-6,1.710949 -1.19532,3.757822 -3.58594,6.140625 -0.18751,0.179694 -0.32813,0.316413 -0.42187,0.410156 l -4.41797,4.417969 h 7.30078 v -2.15625 h 1.37109 v 4.078125 h -11.28515 v -1.277344 l 5.30859,-5.296875 c 1.17187,-1.171867 2.0078,-2.246084 2.50781,-3.222656 0.49999,-0.984364 0.74999,-2.015613 0.75,-3.09375 -1e-5,-1.179673 -0.3086,-2.101547 -0.92578,-2.765625 -0.60938,-0.664046 -1.45313,-0.9960769 -2.53125,-0.9960936 -1.11719,1.67e-5 -1.98047,0.2773606 -2.58984,0.8320316 -0.60938,0.554702 -0.96875,1.386733 -1.07813,2.496093 m 14.4961,-3.4335933 c 0.91406,-0.3437329 1.78906,-0.6054514 2.625,-0.7851563 0.84374,-0.1796697 1.6328,-0.2695134 2.36719,-0.2695312 1.71092,1.78e-5 3.04686,0.3711112 4.00781,1.1132812 0.96092,0.7343906 1.44139,1.7578276 1.4414,3.0703126 -1e-5,1.0547 -0.33204,1.937512 -0.99609,2.648437 -0.66407,0.703136 -1.60548,1.179698 -2.82422,1.429688 1.43749,0.203134 2.55077,0.726571 3.33985,1.570312 0.79686,0.835945 1.19529,1.921882 1.19531,3.257813 -2e-5,1.632816 -0.5508,2.886721 -1.65235,3.761719 -1.09376,0.867187 -2.67188,1.300781 -4.73437,1.300781 -0.91407,0 -1.8086,-0.09766 -2.68359,-0.292969 -0.8672,-0.195312 -1.73048,-0.492187 -2.58985,-0.890625 v -3.398437 h 1.3125 c 0.0781,1.125003 0.45703,1.976564 1.13672,2.554687 0.67968,0.578126 1.63671,0.867189 2.87109,0.867188 1.19531,1e-6 2.13671,-0.343749 2.82422,-1.03125 0.6953,-0.69531 1.04296,-1.644528 1.04297,-2.847657 -10e-6,-1.374993 -0.35548,-2.414055 -1.0664,-3.117187 -0.71095,-0.710929 -1.75392,-1.066397 -3.12891,-1.066406 h -1.11328 v -1.195313 h 0.58594 c 1.36717,1e-5 2.39061,-0.281239 3.07031,-0.84375 0.68749,-0.570301 1.03124,-1.425769 1.03125,-2.566406 -10e-6,-1.023423 -0.28126,-1.804672 -0.84375,-2.34375 -0.56251,-0.546859 -1.3711,-0.8202959 -2.42578,-0.8203126 -1.0547,1.67e-5 -1.87501,0.2500166 -2.46094,0.7499996 -0.57813,0.500016 -0.91797,1.242203 -1.01953,2.226563 h -1.3125 V 9.6662867"
       id="text2069" />
    <path
       style="font-style:normal;font-weight:normal;font-size:24px;font-family:'DejaVu Serif';text-align:center;text-anchor:middle;fill:#000000;fill-opacity:1;stroke:none;stroke-width:1px;stroke-linecap:butt;stroke-linejoin:miter;stroke-opacity:1"
       d="m 607.20519,13.09988 h -1.3125 V 9.9826929 c 0.83594,-0.4452956 1.67578,-0.785139 2.51953,-1.0195312 0.85156,-0.2343573 1.68359,-0.3515447 2.4961,-0.3515625 1.8203,1.78e-5 3.2578,0.4414236 4.3125,1.3242187 1.05467,0.8828281 1.58202,2.0820461 1.58203,3.5976561 -1e-5,1.710949 -1.19533,3.757822 -3.58594,6.140625 -0.18751,0.179694 -0.32813,0.316413 -0.42187,0.410156 l -4.41797,4.417969 h 7.30078 v -2.15625 h 1.37109 v 4.078125 h -11.28515 v -1.277344 l 5.30859,-5.296875 c 1.17187,-1.171867 2.0078,-2.246084 2.50781,-3.222656 0.49999,-0.984364 0.74999,-2.015613 0.75,-3.09375 -10e-6,-1.179673 -0.3086,-2.101547 -0.92578,-2.765625 -0.60938,-0.664046 -1.45313,-0.9960769 -2.53125,-0.9960936 -1.11719,1.67e-5 -1.98047,0.2773606 -2.58984,0.8320316 -0.60938,0.554702 -0.96876,1.386733 -1.07813,2.496093 m 20.54297,7.394532 v -9.304688 l -5.97656,9.304688 h 5.97656 m 5.15625,5.929687 h -7.96875 v -1.242187 h 2.8125 v -3.433594 h -7.64062 V 20.470974 L 627.7716,8.6115992 h 2.32031 V 20.494412 h 3.33984 v 1.253906 h -3.33984 v 3.433594 h 2.8125 v 1.242187 m 2.80078,-7.148437 h 9.89063 v 1.558593 h -9.89063 v -1.558593 m 13.27735,-9.6093753 c 0.91406,-0.3437329 1.78905,-0.6054514 2.625,-0.7851563 0.84374,-0.1796697 1.6328,-0.2695134 2.36718,-0.2695312 1.71093,1.78e-5 3.04687,0.3711112 4.00782,1.1132812 0.96092,0.7343906 1.44139,1.7578276 1.4414,3.0703126 -10e-6,1.0547 -0.33204,1.937512 -0.99609,2.648437 -0.66407,0.703136 -1.60548,1.179698 -2.82422,1.429688 1.43749,0.203134 2.55077,0.726571 3.33984,1.570312 0.79687,0.835945 1.1953,1.921882 1.19532,3.257813 -2e-5,1.632816 -0.5508,2.886721 -1.65235,3.761719 -1.09376,0.867187 -2.67188,1.300781 -4.73437,1.300781 -0.91407,0 -1.8086,-0.09766 -2.6836,-0.292969 -0.86719,-0.195312 -1.73047,-0.492187 -2.58984,-0.890625 v -3.398437 h 1.3125 c 0.0781,1.125003 0.45703,1.976564 1.13672,2.554687 0.67968,0.578126 1.63671,0.867189 2.87109,0.867188 1.19531,1e-6 2.13671,-0.343749 2.82422,-1.03125 0.6953,-0.69531 1.04296,-1.644528 1.04297,-2.847657 -10e-6,-1.374993 -0.35548,-2.414055 -1.06641,-3.117187 -0.71094,-0.710929 -1.75391,-1.066397 -3.1289,-1.066406 h -1.11328 v -1.195313 h 0.58593 c 1.36718,1e-5 2.39062,-0.281239 3.07032,-0.84375 0.68749,-0.570301 1.03124,-1.425769 1.03125,-2.566406 -10e-6,-1.023423 -0.28126,-1.804672 -0.84375,-2.34375 -0.56251,-0.546859 -1.37111,-0.8202959 -2.42579,-0.8203126 -1.05469,1.67e-5 -1.875,0.2500166 -2.46093,0.7499996 -0.57813,0.500016 -0.91798,1.242203 -1.01953,2.226563 h -1.3125 V 9.6662867 m 16.35937,16.7578123 v -1.242187 h 3.04688 V 10.627224 l -3.52735,2.285156 v -1.535156 l 4.26563,-2.7656248 h 1.61718 V 25.181912 h 3.04688 v 1.242187 h -8.44922"
       id="text2073" />
    <text
       xml:space="preserve"
       style="font-style:normal;font-weight:normal;font-size:24px;line-height:1.25;font-family:sans-serif;fill:#000000;fill-opacity:1;stroke:none"
       x="303.85425"
       y="133.41139"
       id="text2"><tspan
         sodipodi:role="line"
         id="tspan2"
         x="303.85425"
         y="133.41139">Channels</tspan></text>
    <text
       xml:space="preserve"
       style="font-style:normal;font-weight:normal;font-size:24px;line-height:1.25;font-family:sans-serif;fill:#000000;fill-opacity:1;stroke:none"
       x="215.88094"
       y="200.3297"
       id="text2-3"><tspan
         sodipodi:role="line"
         id="tspan2-6"
         x="215.88094"
         y="200.3297">Output Gain</tspan></text>
    <text
       xml:space="preserve"
       style="font-style:normal;font-weight:normal;font-size:24px;line-height:1.25;font-family:sans-serif;fill:#000000;fill-opacity:1;stroke:none"
       x="447.0101"
       y="200.3297"
       id="text2-3-0"><tspan
         sodipodi:role="line"
         id="tspan2-6-6"
         x="447.0101"
         y="200.3297">Mapping</tspan></text>
    <text
       xml:space="preserve"
       style="font-style:normal;font-weight:normal;font-size:24px;line-height:1.25;font-family:sans-serif;fill:#000000;fill-opacity:1;stroke:none"
       x="241.50798"
       y="235.56465"
       id="text2-3-0-2"><tspan
         sodipodi:role="line"
         id="tspan2-6-6-6"
         x="241.50798"
         y="235.56465">Optional Channel Mapping Table</tspan></text>
    <text
       xml:space="preserve"
       style="font-style:normal;font-weight:normal;font-size:24px;line-height:1.25;font-family:sans-serif;fill:#000000;fill-opacity:1;stroke:none"
       x="335.18738"
       y="77.4319"
       id="text2-2"><tspan
         sodipodi:role="line"
         id="tspan2-70"
         x="335.18738"
         y="77.4319">Magic Signature</tspan></text>
    <text
       xml:space="preserve"
       style="font-style:normal;font-weight:normal;font-size:24px;line-height:1.25;font-family:sans-serif;fill:#000000;fill-opacity:1;stroke:none"
       x="173.26494"
       y="132.87344"
       id="text2-56"><tspan
         sodipodi:role="line"
         id="tspan2-2"
         x="173.26494"
         y="132.87344">Version</tspan></text>
    <text
       xml:space="preserve"
       style="font-style:normal;font-weight:normal;font-size:24px;line-height:1.25;font-family:sans-serif;fill:#000000;fill-opacity:1;stroke:none"
       x="360.20337"
       y="165.64674"
       id="text2-5"><tspan
         sodipodi:role="line"
         id="tspan2-3"
         x="360.20337"
         y="165.64674">Input Sample Rate</tspan></text>
    <text
       xml:space="preserve"
       style="font-style:normal;font-weight:normal;font-size:24px;line-height:1.25;font-family:sans-serif;fill:#000000;fill-opacity:1;stroke:none"
       x="516.51245"
       y="133.15324"
       id="text2-6"><tspan
         sodipodi:role="line"
         x="516.51245"
         y="133.15324"
         id="tspan3">Pre-Skip</tspan></text>
  </g>
</svg>
